<?xml version="1.0" standalone="no"?>
<!DOCTYPE svg PUBLIC "-//W3C//DTD SVG 20010904//EN"
 "http://www.w3.org/TR/2001/REC-SVG-20010904/DTD/svg10.dtd">
<svg version="1.0" xmlns="http://www.w3.org/2000/svg"
 width="512.000000pt" height="512.000000pt" viewBox="0 0 512.000000 512.000000"
 preserveAspectRatio="xMidYMid meet">

<g transform="translate(0.000000,512.000000) scale(0.100000,-0.100000)"
fill="#000000" stroke="none">
<path d="M1200 4867 c-49 -16 -133 -102 -148 -153 -17 -58 -17 -890 0 -948 16
-55 99 -138 154 -154 32 -9 353 -12 1356 -12 1487 0 1374 -6 1451 80 24 26 49
66 55 88 17 55 17 889 0 944 -6 22 -31 62 -55 88 -78 86 37 80 -1457 79 -933
-1 -1331 -4 -1356 -12z m2695 -172 l25 -24 0 -431 0 -431 -25 -24 -24 -25
-1311 0 -1311 0 -24 25 -25 24 0 431 0 431 25 24 24 25 1311 0 1311 0 24 -25z"/>
<path d="M1455 4535 l-25 -24 0 -271 0 -271 25 -24 c15 -16 36 -25 55 -25 19
0 40 9 55 25 21 20 25 34 25 81 l0 56 47 -53 c88 -100 100 -109 133 -109 41 0
80 39 80 79 0 22 -16 48 -60 99 l-59 69 40 33 c101 81 104 221 6 307 -47 41
-91 53 -205 53 -85 0 -95 -2 -117 -25z m219 -151 c33 -33 6 -74 -50 -74 -34 0
-34 0 -34 45 0 45 0 45 34 45 19 0 42 -7 50 -16z"/>
<path d="M2035 4535 l-25 -24 0 -271 0 -271 25 -24 c23 -24 28 -25 175 -25
147 0 152 1 175 25 33 32 33 78 0 110 -22 23 -32 25 -120 25 l-95 0 0 40 0 40
55 0 c67 0 105 29 105 80 0 51 -38 80 -105 80 l-55 0 0 40 0 40 95 0 c88 0 98
2 120 25 16 15 25 36 25 55 0 19 -9 40 -25 55 -23 24 -28 25 -175 25 -147 0
-152 -1 -175 -25z"/>
<path d="M2595 4535 l-25 -24 0 -271 0 -271 25 -24 c29 -30 74 -32 106 -6 22
18 24 28 29 142 l5 123 84 -128 c47 -70 93 -131 102 -137 29 -15 75 -10 100
10 l24 19 3 271 3 271 -25 25 c-30 30 -74 33 -107 6 -22 -18 -24 -28 -29 -148
l-5 -128 -89 138 c-49 76 -97 142 -107 147 -31 17 -69 11 -94 -15z"/>
<path d="M3235 4535 c-16 -15 -25 -36 -25 -55 0 -51 38 -80 105 -80 l55 0 0
-215 c0 -216 0 -216 25 -240 15 -16 36 -25 55 -25 19 0 40 9 55 25 25 24 25
24 25 240 l0 215 55 0 c67 0 105 29 105 80 0 19 -9 40 -25 55 -24 25 -26 25
-215 25 -189 0 -191 0 -215 -25z"/>
<path d="M1280 3427 c-49 -16 -133 -102 -148 -153 -8 -28 -12 -126 -12 -298
l0 -256 -136 0 c-78 0 -154 -5 -178 -12 -55 -16 -138 -99 -154 -154 -28 -94
-8 -169 63 -239 64 -65 99 -75 264 -75 72 0 131 -3 131 -8 0 -4 -34 -109 -75
-232 l-75 -225 0 -296 0 -297 -30 -12 c-68 -28 -130 -129 -130 -210 0 -81 62
-182 130 -210 l30 -12 0 -127 c0 -168 14 -217 83 -285 139 -139 357 -102 448
74 21 39 24 62 27 182 l4 138 1039 0 1039 0 0 -118 c0 -158 15 -209 83 -276
139 -139 356 -102 448 74 21 40 24 61 27 192 l4 146 29 13 c67 27 129 129 129
209 0 81 -62 182 -130 210 l-30 12 0 297 0 296 -75 225 c-41 123 -75 228 -75
232 0 5 60 8 133 8 167 0 209 13 270 80 90 100 90 220 0 320 -61 68 -102 80
-275 80 l-138 0 0 256 c0 169 -4 270 -12 296 -6 22 -31 62 -55 88 -77 86 27
80 -1377 79 -874 -1 -1251 -4 -1276 -12z m2535 -172 l25 -24 0 -456 0 -455
-1280 0 -1280 0 0 455 0 456 25 24 24 25 1231 0 1231 0 24 -25z m-2695 -775
l0 -80 -135 0 c-131 0 -137 1 -160 25 -16 15 -25 36 -25 55 0 19 9 40 25 55
23 24 29 25 160 25 l135 0 0 -80z m3175 55 c16 -15 25 -36 25 -55 0 -19 -9
-40 -25 -55 -23 -24 -29 -25 -160 -25 l-135 0 0 80 0 80 135 0 c131 0 137 -1
160 -25z m-379 -537 l52 -158 -120 0 c-66 0 -139 -5 -162 -12 -55 -16 -138
-99 -154 -154 -28 -94 -8 -169 63 -239 65 -66 99 -75 269 -75 l136 0 0 -80 0
-80 -1440 0 -1440 0 0 80 0 80 138 0 c173 0 214 12 275 80 90 100 90 220 0
320 -60 66 -104 80 -259 80 l-123 0 50 148 c27 81 51 153 54 160 3 10 270 12
1306 10 l1302 -3 53 -157z m-2501 -343 c16 -15 25 -36 25 -55 0 -19 -9 -40
-25 -55 -23 -24 -29 -25 -160 -25 l-135 0 0 80 0 80 135 0 c131 0 137 -1 160
-25z m2585 -55 l0 -80 -135 0 c-131 0 -137 1 -160 25 -16 15 -25 36 -25 55 0
19 9 40 25 55 23 24 29 25 160 25 l135 0 0 -80z m135 -585 c33 -32 33 -78 0
-110 l-24 -25 -1551 0 -1551 0 -24 25 c-16 15 -25 36 -25 55 0 19 9 40 25 55
l24 25 1551 0 1551 0 24 -25z m-2777 -420 l-3 -125 -33 -32 c-28 -28 -39 -33
-82 -33 -43 0 -54 5 -82 33 l-33 32 -3 125 -4 125 122 0 122 0 -4 -125z m2640
0 l-3 -125 -33 -32 c-28 -28 -39 -33 -82 -33 -43 0 -54 5 -82 33 l-33 32 -3
125 -4 125 122 0 122 0 -4 -125z"/>
<path d="M2345 3095 c-16 -15 -25 -36 -25 -55 0 -19 9 -40 25 -55 24 -25 26
-25 215 -25 189 0 191 0 215 25 16 15 25 36 25 55 0 19 -9 40 -25 55 -24 25
-26 25 -215 25 -189 0 -191 0 -215 -25z"/>
<path d="M2240 1827 c-49 -16 -133 -102 -148 -153 -28 -94 -8 -169 63 -239 31
-32 65 -55 91 -63 28 -8 130 -12 316 -12 323 0 343 4 411 80 90 100 90 220 0
320 -69 77 -88 80 -417 79 -174 -1 -294 -5 -316 -12z m615 -172 c16 -15 25
-36 25 -55 0 -19 -9 -40 -25 -55 l-24 -25 -271 0 -271 0 -24 25 c-16 15 -25
36 -25 55 0 19 9 40 25 55 l24 25 271 0 271 0 24 -25z"/>
</g>
</svg>
