<?xml version="1.0" standalone="no"?>
<!DOCTYPE svg PUBLIC "-//W3C//DTD SVG 20010904//EN"
 "http://www.w3.org/TR/2001/REC-SVG-20010904/DTD/svg10.dtd">
<svg version="1.0" xmlns="http://www.w3.org/2000/svg"
 width="512.000000pt" height="512.000000pt" viewBox="0 0 512.000000 512.000000"
 preserveAspectRatio="xMidYMid meet">

<g transform="translate(0.000000,512.000000) scale(0.100000,-0.100000)"
fill="#000000" stroke="none">
<path d="M265 4855 l-25 -24 0 -431 0 -431 25 -24 c23 -24 29 -25 160 -25
l135 0 0 -1760 0 -1760 -135 0 c-131 0 -137 -1 -160 -25 -33 -32 -33 -78 0
-110 l24 -25 2271 0 2271 0 24 25 c33 32 33 78 0 110 -23 24 -29 25 -160 25
l-135 0 0 1760 0 1760 135 0 c131 0 137 1 160 25 l25 24 0 431 0 431 -25 24
-24 25 -2271 0 -2271 0 -24 -25z m4455 -455 l0 -320 -2160 0 -2160 0 0 320 0
320 2160 0 2160 0 0 -320z m-3440 -2240 l0 -1760 -280 0 -280 0 0 1760 0 1760
280 0 280 0 0 -1760z m2400 0 l0 -1760 -360 0 -360 0 0 444 0 445 54 -6 c80
-8 145 17 199 77 26 28 49 67 56 92 9 31 11 149 9 423 l-3 380 -32 67 c-44 93
-100 151 -191 196 l-76 37 -416 0 -416 0 -76 -37 c-91 -45 -147 -103 -191
-196 l-32 -67 -3 -380 c-4 -442 -3 -445 72 -521 60 -59 118 -80 196 -71 l50 6
0 -444 0 -445 -360 0 -360 0 0 1760 0 1760 1120 0 1120 0 0 -1760z m720 0 l0
-1760 -280 0 -280 0 0 1760 0 1760 280 0 280 0 0 -1760z m-1446 228 c55 -16
138 -99 154 -154 8 -29 12 -146 12 -393 l0 -352 -25 -24 c-15 -16 -36 -25 -55
-25 -19 0 -40 9 -55 25 l-25 24 0 231 0 231 -25 24 c-15 16 -36 25 -55 25 -19
0 -40 -9 -55 -25 l-25 -24 0 -776 0 -775 -80 0 -80 0 0 495 0 496 -25 24 c-32
33 -78 33 -110 0 l-25 -24 0 -496 0 -495 -80 0 -80 0 0 775 0 776 -25 24 c-15
16 -36 25 -55 25 -19 0 -40 -9 -55 -25 l-25 -24 0 -231 0 -231 -25 -24 c-32
-33 -78 -33 -110 0 l-25 24 0 352 c0 247 4 364 12 393 15 51 99 137 148 153
51 16 740 17 794 1z"/>
<path d="M2103 4457 c-88 -88 -103 -108 -103 -135 0 -43 38 -82 80 -82 25 0
45 13 96 62 l64 61 64 -61 c51 -49 71 -62 96 -62 42 0 80 39 80 82 0 27 -15
47 -103 135 -90 90 -107 103 -137 103 -30 0 -47 -13 -137 -103z"/>
<path d="M2665 4535 c-16 -16 -25 -35 -25 -57 0 -27 15 -47 103 -135 90 -90
107 -103 137 -103 30 0 47 13 137 103 88 88 103 108 103 135 0 43 -38 82 -80
82 -25 0 -45 -13 -96 -62 l-64 -61 -64 61 c-74 71 -109 80 -151 37z"/>
<path d="M2465 3346 c-107 -34 -186 -102 -232 -201 -24 -51 -28 -73 -28 -145
0 -72 4 -94 28 -146 130 -282 522 -281 654 1 24 51 28 73 28 145 0 72 -4 94
-28 145 -30 65 -81 124 -138 160 -78 50 -199 68 -284 41z m205 -180 c60 -39
85 -89 85 -168 0 -58 -4 -72 -30 -109 -40 -56 -94 -84 -165 -84 -136 0 -226
120 -191 253 14 51 75 117 123 131 53 16 135 6 178 -23z"/>
</g>
</svg>
