<?xml version="1.0" standalone="no"?>
<!DOCTYPE svg PUBLIC "-//W3C//DTD SVG 20010904//EN"
 "http://www.w3.org/TR/2001/REC-SVG-20010904/DTD/svg10.dtd">
<svg version="1.0" xmlns="http://www.w3.org/2000/svg"
 width="512.000000pt" height="512.000000pt" viewBox="0 0 512.000000 512.000000"
 preserveAspectRatio="xMidYMid meet">
<metadata>
Created by potrace 1.16, written by Peter Selinger 2001-2019
</metadata>
<g transform="translate(0.000000,512.000000) scale(0.100000,-0.100000)"
fill="#000000" stroke="none">
<path d="M682 4517 l-112 -112 0 -821 0 -821 -280 -443 c-154 -244 -280 -447
-280 -452 0 -4 1148 -8 2550 -8 1403 0 2550 4 2550 8 0 5 -126 208 -280 452
l-280 443 0 821 0 821 -113 113 -112 112 -1765 0 -1765 0 -113 -113z m3398
-923 c0 -534 -1 -565 -17 -560 -174 52 -539 110 -898 142 -268 25 -942 25
-1210 0 -359 -32 -724 -90 -897 -142 -17 -5 -18 26 -18 560 l0 566 1520 0
1520 0 0 -566z"/>
<path d="M1675 3974 c-145 -31 -278 -115 -316 -199 -16 -35 -19 -69 -19 -261
l0 -221 58 13 c225 54 388 78 652 99 113 8 233 18 268 21 l62 6 0 151 c0 132
-3 156 -21 193 -38 79 -134 146 -269 186 -89 27 -316 34 -415 12z"/>
<path d="M3125 3984 c-194 -40 -317 -110 -364 -208 -18 -37 -21 -61 -21 -193
l0 -151 63 -6 c34 -3 154 -13 267 -21 264 -21 427 -45 653 -99 l57 -13 0 221
c0 192 -3 226 -19 261 -39 86 -174 169 -323 199 -70 15 -261 20 -313 10z"/>
<path d="M0 1355 l0 -235 265 0 265 0 0 -315 0 -315 235 0 235 0 0 315 0 315
1560 0 1560 0 0 -315 0 -315 235 0 235 0 0 315 0 315 265 0 265 0 0 235 0 235
-2560 0 -2560 0 0 -235z"/>
</g>
</svg>
