<?xml version="1.0" standalone="no"?>
<!DOCTYPE svg PUBLIC "-//W3C//DTD SVG 20010904//EN"
 "http://www.w3.org/TR/2001/REC-SVG-20010904/DTD/svg10.dtd">
<svg version="1.0" xmlns="http://www.w3.org/2000/svg"
 width="512.000000pt" height="512.000000pt" viewBox="0 0 512.000000 512.000000"
 preserveAspectRatio="xMidYMid meet">
<metadata>
Created by potrace 1.16, written by Peter Selinger 2001-2019
</metadata>
<g transform="translate(0.000000,512.000000) scale(0.100000,-0.100000)"
fill="#000000" stroke="none">
<path d="M2320 4226 c-301 -53 -567 -192 -780 -406 -203 -203 -336 -448 -397
-732 -26 -119 -26 -457 0 -576 123 -572 557 -1006 1130 -1129 117 -26 457 -25
575 0 572 123 1006 557 1129 1129 26 119 26 457 0 576 -61 284 -194 529 -397
732 -199 199 -445 334 -720 395 -101 23 -435 29 -540 11z m460 -172 c178 -32
366 -110 509 -211 92 -65 238 -210 305 -302 156 -218 236 -468 236 -741 0
-353 -130 -660 -383 -907 -109 -106 -193 -167 -313 -228 -178 -91 -368 -136
-574 -136 -206 0 -396 45 -574 136 -120 61 -204 122 -313 228 -253 247 -383
554 -383 907 0 353 130 660 383 907 108 105 193 167 312 228 245 125 526 167
795 119z"/>
<path d="M2055 3741 c-87 -40 -135 -120 -135 -223 0 -74 23 -129 71 -175 67
-64 61 -63 571 -63 430 0 466 2 503 19 86 40 135 120 135 221 0 101 -49 181
-135 221 -37 17 -73 19 -505 19 -432 0 -468 -2 -505 -19z m218 -223 l-83 -83
-42 15 c-47 17 -66 48 -54 94 10 40 54 55 166 56 l95 0 -82 -82z m402 2 l-80
-80 -75 0 -75 0 80 80 80 80 75 0 75 0 -80 -80z"/>
<path d="M3079 3172 c-73 -38 -107 -89 -120 -177 -11 -81 -26 -101 -82 -110
-59 -10 -106 -36 -170 -95 -131 -120 -151 -274 -55 -422 91 -141 244 -245 393
-269 276 -42 547 148 620 436 20 78 20 272 0 348 -54 206 -210 317 -446 317
-76 0 -94 -4 -140 -28z m297 -173 c101 -48 139 -139 132 -315 -4 -105 -7 -117
-41 -187 -94 -190 -291 -277 -468 -208 -104 40 -239 190 -239 265 0 61 101
156 181 170 50 9 122 57 148 100 13 20 27 66 32 103 10 71 27 100 63 105 42 6
150 -12 192 -33z"/>
<path d="M3112 2700 c-48 -30 -72 -75 -72 -140 0 -100 60 -160 160 -160 100 0
160 60 160 160 0 100 -60 160 -160 160 -37 0 -66 -6 -88 -20z"/>
<path d="M1620 2780 c-13 -13 -20 -33 -20 -60 0 -38 14 -55 321 -403 177 -199
330 -370 341 -379 28 -25 92 -24 118 2 19 19 20 33 20 420 0 387 -1 401 -20
420 -19 19 -33 20 -380 20 -347 0 -361 -1 -380 -20z m620 -345 c0 -113 -2
-205 -4 -205 -2 0 -75 80 -162 178 -86 97 -169 189 -183 205 l-25 27 187 0
187 0 0 -205z"/>
<path d="M260 4060 c-20 -20 -20 -33 -20 -586 0 -398 3 -572 11 -587 6 -12 23
-34 36 -49 l25 -26 -32 -774 c-18 -425 -30 -794 -27 -820 11 -91 78 -185 164
-228 63 -32 180 -39 252 -15 97 32 186 141 197 242 4 26 -8 396 -26 821 l-32
774 25 26 c13 15 30 37 36 49 8 15 11 189 11 587 0 553 0 566 -20 586 -13 13
-33 20 -60 20 -27 0 -47 -7 -60 -20 -19 -19 -20 -33 -20 -320 l0 -300 -40 0
-40 0 0 300 c0 287 -1 301 -20 320 -13 13 -33 20 -60 20 -27 0 -47 -7 -60 -20
-19 -19 -20 -33 -20 -320 l0 -300 -40 0 -40 0 0 300 c0 287 -1 301 -20 320
-13 13 -33 20 -60 20 -27 0 -47 -7 -60 -20z m460 -940 l0 -160 -160 0 -160 0
0 160 0 160 160 0 160 0 0 -160z m-80 -332 c0 -7 14 -360 31 -785 31 -760 32
-772 13 -804 -53 -90 -195 -90 -248 0 -19 32 -18 44 13 804 17 425 31 778 31
785 0 8 23 12 80 12 57 0 80 -4 80 -12z"/>
<path d="M4625 4061 c-166 -48 -315 -168 -392 -316 -71 -138 -73 -152 -73
-603 0 -400 0 -401 25 -479 32 -101 71 -167 144 -246 l60 -63 -65 -545 c-38
-327 -62 -560 -58 -584 16 -105 86 -199 182 -242 48 -22 64 -25 140 -21 56 3
99 11 122 22 48 25 117 93 143 141 l22 40 3 1437 c3 1666 17 1479 -115 1477
-43 0 -105 -8 -138 -18z m95 -866 l0 -715 -103 0 c-99 0 -104 1 -139 30 -48
40 -101 122 -130 201 -22 62 -23 73 -23 429 0 402 3 425 66 536 31 55 112 136
172 173 29 18 118 53 155 60 1 1 2 -321 2 -714z m-2 -1417 c-3 -487 -5 -546
-20 -574 -46 -84 -151 -101 -221 -36 -50 48 -50 52 15 609 33 285 62 524 64
531 2 8 28 12 84 12 l81 0 -3 -542z"/>
</g>
</svg>
