<?xml version="1.0" standalone="no"?>
<!DOCTYPE svg PUBLIC "-//W3C//DTD SVG 20010904//EN"
 "http://www.w3.org/TR/2001/REC-SVG-20010904/DTD/svg10.dtd">
<svg version="1.0" xmlns="http://www.w3.org/2000/svg"
 width="512.000000pt" height="512.000000pt" viewBox="0 0 512.000000 512.000000"
 preserveAspectRatio="xMidYMid meet">

<g transform="translate(0.000000,512.000000) scale(0.100000,-0.100000)"
fill="#000000" stroke="none">
<path d="M1208 4908 c-275 -33 -488 -276 -488 -558 0 -304 256 -560 560 -560
144 0 288 61 392 164 225 225 226 567 3 792 -128 128 -287 184 -467 162z m217
-232 c30 -14 76 -46 103 -73 143 -143 143 -360 1 -502 -203 -203 -547 -91
-600 195 -32 172 92 359 268 404 61 15 167 4 228 -24z"/>
<path d="M4080 4909 c-217 -23 -411 -191 -475 -414 -23 -76 -23 -213 0 -291
55 -194 223 -353 421 -400 136 -32 302 -2 423 75 64 42 158 142 194 208 34 64
67 190 67 258 0 185 -95 365 -247 468 -115 79 -241 110 -383 96z m159 -214
c255 -67 347 -385 170 -580 -141 -153 -364 -159 -512 -12 -73 72 -102 142
-102 247 0 72 4 94 28 145 77 164 246 246 416 200z"/>
<path d="M995 3681 c-151 -20 -275 -81 -386 -191 -83 -82 -134 -164 -170 -275
-23 -69 -24 -79 -27 -567 l-3 -498 -105 0 -104 0 0 -100 0 -100 1590 0 1590 0
0 100 0 100 -347 1 c-309 0 -344 2 -310 14 21 8 63 34 95 59 31 25 215 155
407 290 l350 244 5 -1151 c5 -1236 3 -1174 56 -1257 50 -79 125 -125 230 -142
107 -16 477 -5 537 17 65 24 149 102 178 167 l24 53 3 596 3 596 39 6 c95 12
193 89 238 185 l27 57 0 605 c0 550 -2 612 -18 683 -56 236 -232 420 -469 487
-92 27 -347 38 -493 22 -179 -20 -270 -62 -442 -205 -65 -54 -332 -267 -593
-475 -455 -361 -476 -379 -505 -436 -26 -52 -30 -70 -30 -140 0 -65 5 -90 24
-127 27 -54 101 -115 163 -134 39 -12 21 -14 -179 -14 l-222 -1 -3 498 c-3
488 -4 498 -27 567 -56 170 -176 314 -326 392 -134 69 -165 74 -470 78 -148 2
-297 0 -330 -4z m598 -216 c151 -39 274 -156 331 -314 19 -53 20 -85 24 -528
l3 -473 -671 0 -671 0 3 473 c4 443 5 475 24 528 56 155 179 274 327 314 77
20 551 21 630 0z m2770 0 c177 -46 315 -193 348 -370 8 -42 9 -225 4 -624 l-7
-563 -28 -31 c-26 -29 -31 -31 -121 -35 -108 -5 -134 -18 -149 -71 -6 -22 -10
-272 -10 -668 l0 -632 -24 -28 -24 -28 -238 -3 c-258 -3 -285 1 -309 48 -12
22 -15 237 -20 1296 -4 789 -10 1281 -17 1301 -12 42 -43 63 -90 63 -34 0 -81
-35 -512 -369 -262 -204 -484 -375 -495 -380 -32 -18 -69 -13 -85 11 -26 36
-20 74 17 112 17 19 253 209 522 422 270 213 515 410 545 438 60 53 151 102
221 115 79 16 408 13 472 -4z"/>
<path d="M1970 1829 c-32 -13 -88 -66 -107 -103 -8 -16 -17 -64 -20 -106 l-6
-78 -181 -4 c-169 -4 -185 -6 -238 -30 -66 -31 -128 -90 -160 -156 -23 -47
-23 -48 -23 -482 0 -434 0 -435 23 -482 31 -63 96 -126 162 -157 l55 -26 730
-3 c448 -2 754 1 793 7 146 23 245 117 272 256 8 41 10 183 8 445 l-3 385 -28
57 c-34 69 -109 140 -175 164 -36 13 -90 18 -229 22 l-183 4 0 72 c-1 110 -39
176 -122 211 -31 12 -84 15 -290 14 -142 0 -264 -5 -278 -10z m490 -239 l0
-50 -205 0 -205 0 0 50 0 50 205 0 205 0 0 -50z m-820 -720 l0 -460 -70 0
c-63 0 -73 3 -102 29 l-33 29 0 402 0 402 33 29 c29 26 39 29 102 29 l70 0 0
-460z m1020 0 l0 -460 -410 0 -410 0 0 460 0 460 410 0 410 0 0 -460z m386
427 l24 -28 0 -397 c0 -361 -2 -399 -18 -418 -27 -34 -56 -44 -121 -44 l-61 0
0 461 0 461 76 -4 c69 -3 79 -6 100 -31z"/>
</g>
</svg>
