<?xml version="1.0" standalone="no"?>
<!DOCTYPE svg PUBLIC "-//W3C//DTD SVG 20010904//EN"
 "http://www.w3.org/TR/2001/REC-SVG-20010904/DTD/svg10.dtd">
<svg version="1.0" xmlns="http://www.w3.org/2000/svg"
 width="512.000000pt" height="512.000000pt" viewBox="0 0 512.000000 512.000000"
 preserveAspectRatio="xMidYMid meet">
<metadata>
Created by potrace 1.16, written by Peter Selinger 2001-2019
</metadata>
<g transform="translate(0.000000,512.000000) scale(0.100000,-0.100000)"
fill="#000000" stroke="none">
<path d="M940 4298 c-38 -15 -74 -40 -116 -82 -78 -78 -104 -143 -104 -256 0
-113 26 -178 104 -256 78 -78 143 -104 256 -104 113 0 178 26 256 104 78 78
104 143 104 256 0 113 -26 178 -104 256 -79 79 -143 104 -259 103 -58 0 -98
-6 -137 -21z m228 -167 c67 -34 102 -93 102 -171 0 -111 -79 -190 -190 -190
-111 0 -190 79 -190 190 0 111 77 189 188 190 33 0 67 -7 90 -19z"/>
<path d="M2904 3746 c-15 -11 -20 -30 -24 -91 l-5 -77 -87 -29 c-236 -76 -439
-237 -561 -444 -22 -38 -42 -72 -43 -74 -2 -2 -18 9 -36 24 -74 63 -84 65
-410 65 l-298 0 0 110 c0 124 -12 164 -63 219 -61 64 -90 71 -297 71 -207 0
-236 -7 -297 -71 -65 -69 -63 -49 -63 -689 0 -626 -1 -612 53 -676 l27 -32 0
-524 0 -524 26 -52 c50 -101 135 -152 254 -152 119 0 204 51 254 152 l26 52 0
526 c0 526 0 527 21 546 50 44 59 85 59 291 l0 192 303 3 c166 2 310 7 320 12
16 8 17 -19 17 -483 0 -484 0 -491 -20 -491 -11 0 -29 -9 -40 -20 -19 -19 -20
-33 -20 -220 0 -187 1 -201 20 -220 11 -11 30 -20 42 -20 22 0 23 -3 20 -62
-5 -80 10 -130 56 -180 50 -56 102 -78 182 -78 80 0 132 22 182 78 46 50 61
100 56 180 l-3 62 645 0 645 0 -3 -62 c-5 -80 10 -130 56 -180 50 -56 102 -78
182 -78 80 0 132 22 182 78 46 50 61 100 56 180 -3 59 -2 62 20 62 12 0 31 9
42 20 19 19 20 33 20 220 0 187 -1 201 -20 220 -11 11 -29 20 -40 20 -19 0
-19 12 -22 578 l-3 577 -28 90 c-74 240 -209 431 -400 566 -92 65 -165 102
-275 139 l-87 29 -5 76 c-4 61 -9 80 -24 91 -16 11 -73 14 -296 14 -223 0
-280 -3 -296 -14z m456 -226 l0 -80 -160 0 -160 0 0 80 0 80 160 0 160 0 0
-80z m-480 -160 c0 -27 7 -47 20 -60 19 -19 33 -20 300 -20 267 0 281 1 300
20 13 13 20 33 20 61 0 48 1 48 129 -12 242 -114 408 -314 479 -578 l25 -96 5
-537 4 -538 -41 0 -41 0 0 460 c0 535 7 500 -100 500 l-60 0 0 100 c0 118 -12
140 -80 140 -68 0 -80 -22 -80 -140 l0 -100 -60 0 c-107 0 -100 35 -100 -500
l0 -460 -80 0 -80 0 0 460 c0 535 7 500 -100 500 l-60 0 0 100 c0 118 -12 140
-80 140 -68 0 -80 -22 -80 -140 l0 -100 -60 0 c-107 0 -100 35 -100 -500 l0
-460 -80 0 -80 0 0 460 c0 535 7 500 -100 500 l-60 0 0 100 c0 118 -12 140
-80 140 -68 0 -80 -22 -80 -140 l0 -100 -60 0 c-107 0 -100 35 -100 -500 l0
-460 -41 0 -41 0 4 538 5 537 25 96 c78 288 281 513 558 615 50 18 50 18 50
-26z m-1656 -14 c23 -9 37 -24 45 -46 18 -52 15 -1040 -3 -1084 -19 -45 -55
-56 -186 -56 -131 0 -167 11 -186 56 -18 44 -21 1032 -3 1084 8 21 23 37 43
46 43 18 245 19 290 0z m758 -396 c115 -32 115 -188 0 -220 -21 -5 -148 -10
-289 -10 l-253 0 0 120 0 120 253 0 c141 0 268 -5 289 -10z m658 -950 l0 -400
-80 0 -80 0 0 400 0 400 80 0 80 0 0 -400z m640 0 l0 -400 -80 0 -80 0 0 400
0 400 80 0 80 0 0 -400z m640 0 l0 -400 -80 0 -80 0 0 400 0 400 80 0 80 0 0
-400z m-2720 -452 c0 -278 -4 -467 -10 -490 -32 -115 -188 -115 -220 0 -6 23
-10 212 -10 490 l0 452 120 0 120 0 0 -452z m3040 -188 l0 -80 -1040 0 -1040
0 0 80 0 80 1040 0 1040 0 0 -80z m-1870 -270 c11 -11 20 -33 20 -50 0 -17 -9
-39 -20 -50 -43 -43 -120 -11 -120 50 0 38 32 70 70 70 17 0 39 -9 50 -20z
m1760 0 c11 -11 20 -33 20 -50 0 -17 -9 -39 -20 -50 -43 -43 -120 -11 -120 50
0 38 32 70 70 70 17 0 39 -9 50 -20z"/>
</g>
</svg>
