<?xml version="1.0" standalone="no"?>
<!DOCTYPE svg PUBLIC "-//W3C//DTD SVG 20010904//EN"
 "http://www.w3.org/TR/2001/REC-SVG-20010904/DTD/svg10.dtd">
<svg version="1.0" xmlns="http://www.w3.org/2000/svg"
 width="512.000000pt" height="512.000000pt" viewBox="0 0 512.000000 512.000000"
 preserveAspectRatio="xMidYMid meet">

<g transform="translate(0.000000,512.000000) scale(0.100000,-0.100000)"
fill="#000000" stroke="none">
<path d="M2436 5104 c-169 -41 -319 -176 -377 -339 -27 -75 -36 -210 -20 -288
39 -185 190 -344 380 -401 71 -21 211 -21 282 0 183 54 332 207 374 385 43
186 -5 358 -139 495 -137 139 -317 192 -500 148z"/>
<path d="M1846 3865 c-27 -8 -69 -27 -95 -42 -81 -51 -652 -524 -676 -562 -36
-55 -43 -104 -49 -391 -4 -146 -9 -289 -13 -318 l-5 -53 -152 3 -151 3 -3 245
c-3 313 12 290 -193 290 -81 0 -155 -3 -164 -6 -39 -15 -45 -53 -45 -299 l0
-235 -94 0 c-80 0 -98 -3 -127 -23 -48 -31 -82 -101 -74 -152 15 -99 82 -145
213 -145 l82 0 0 -241 0 -241 29 -29 29 -29 137 0 c141 0 185 10 199 45 3 9 6
124 6 256 l0 239 164 0 165 0 27 -35 c95 -125 295 -120 379 8 l17 27 1107 0
1107 0 16 -28 c23 -39 83 -78 141 -93 89 -22 201 22 247 97 15 24 16 24 182
24 l168 0 0 -239 c0 -132 3 -247 6 -256 14 -35 58 -45 199 -45 l137 0 29 29
29 29 0 241 0 241 82 0 c131 0 198 46 213 145 8 51 -26 121 -74 152 -29 20
-47 23 -127 23 l-94 0 0 235 c0 246 -6 284 -45 299 -9 3 -83 6 -164 6 -205 0
-190 23 -193 -290 l-3 -245 -155 0 -155 0 -11 336 c-11 325 -12 339 -36 391
-23 50 -49 74 -334 308 -169 139 -329 266 -354 282 -93 58 -95 58 -815 57
-518 -1 -670 -4 -709 -14z m712 -1153 l677 3 5 302 5 302 180 -147 c155 -128
180 -152 186 -182 4 -19 10 -137 13 -262 l7 -228 -1072 0 -1071 0 7 258 c4
141 8 258 9 258 0 1 84 70 186 153 l185 152 3 -306 2 -305 678 2z"/>
<path d="M1325 1830 c-126 -77 -247 -156 -269 -177 -75 -72 -78 -87 -177 -729
-68 -446 -89 -603 -85 -647 16 -162 165 -288 325 -273 78 7 159 45 203 95 64
73 72 105 153 641 42 278 78 506 78 507 1 1 162 98 357 217 l355 216 295 0
295 0 354 -215 c195 -119 356 -216 357 -218 1 -1 37 -225 78 -497 42 -272 80
-511 86 -530 35 -125 164 -219 302 -220 137 -1 280 133 295 274 6 54 -154
1142 -182 1241 -22 79 -68 139 -143 188 -37 24 -150 94 -252 155 l-186 112
-1004 0 -1005 -1 -230 -139z"/>
</g>
</svg>
