<?xml version="1.0" standalone="no"?>
<!DOCTYPE svg PUBLIC "-//W3C//DTD SVG 20010904//EN"
 "http://www.w3.org/TR/2001/REC-SVG-20010904/DTD/svg10.dtd">
<svg version="1.0" xmlns="http://www.w3.org/2000/svg"
 width="512.000000pt" height="512.000000pt" viewBox="0 0 512.000000 512.000000"
 preserveAspectRatio="xMidYMid meet">

<g transform="translate(0.000000,512.000000) scale(0.100000,-0.100000)"
fill="#000000" stroke="none">
<path d="M2205 5101 c-16 -10 -178 -132 -360 -270 l-330 -251 -110 -36 c-197
-66 -214 -73 -230 -104 -20 -39 -21 -363 -1 -399 8 -14 53 -45 112 -75 l99
-51 87 -170 87 -170 1 -168 c0 -128 4 -175 15 -197 8 -15 19 -30 24 -32 6 -2
1 -37 -11 -83 -29 -111 -31 -336 -4 -450 38 -163 109 -306 216 -434 40 -47 54
-71 46 -74 -214 -83 -747 -297 -791 -319 -226 -113 -394 -320 -467 -577 -21
-73 -22 -97 -26 -615 -3 -582 -3 -585 49 -611 42 -22 3856 -22 3898 0 52 26
52 29 49 611 -4 596 -3 578 -73 746 -79 187 -237 354 -421 446 -50 25 -559
231 -751 303 l-52 20 59 70 c104 125 180 276 216 434 27 114 25 339 -4 450
-12 46 -17 81 -11 83 5 2 16 17 24 32 11 22 15 69 15 197 l1 168 87 170 87
170 99 51 c59 30 104 61 112 75 20 36 19 360 -1 399 -16 31 -32 38 -230 104
l-110 37 -330 251 c-181 138 -343 259 -360 269 -28 17 -55 19 -355 19 -301 0
-327 -1 -355 -19z m964 -440 l343 -260 124 -41 124 -42 0 -84 0 -84 -86 -43
-86 -42 -94 -187 -94 -188 -840 0 -840 0 -94 188 -94 187 -86 42 -86 43 0 84
0 84 125 42 125 42 342 259 342 259 267 0 266 0 342 -259z m191 -1251 l0 -79
-172 -56 c-295 -94 -470 -122 -698 -112 -135 6 -243 22 -355 51 -103 26 -278
85 -327 108 l-47 23 -1 73 0 72 800 0 800 0 0 -80z m-1290 -385 c190 -49 273
-59 490 -59 259 0 388 21 657 109 l102 33 10 -32 c32 -98 39 -245 17 -358 -61
-318 -279 -548 -601 -636 -82 -23 -288 -23 -370 0 -213 58 -372 171 -485 345
-124 188 -163 449 -99 650 l10 31 87 -29 c48 -16 130 -41 182 -54z m46 -1059
c38 -18 85 -39 105 -46 l37 -13 4 -111 c3 -97 7 -118 31 -168 15 -31 43 -70
62 -87 19 -17 35 -33 35 -36 0 -3 -40 -59 -89 -123 -139 -184 -135 -174 -141
-395 l-5 -188 -303 502 c-167 276 -302 502 -300 504 4 3 482 193 489 194 3 1
36 -14 75 -33z m1206 -63 c134 -53 244 -97 246 -98 2 -2 -133 -228 -300 -504
l-303 -502 -5 188 c-6 221 -2 211 -141 395 -49 64 -89 120 -89 123 0 3 16 19
35 36 19 17 47 56 62 87 24 50 28 71 31 168 l4 110 72 28 c40 15 86 36 102 47
16 10 32 19 36 19 5 0 117 -43 250 -97z m-662 -103 c0 -70 -17 -111 -55 -128
-33 -15 -57 -15 -90 0 -38 17 -55 58 -55 128 l0 60 100 0 100 0 0 -60z m-845
-825 c246 -407 451 -748 456 -757 9 -17 -30 -18 -751 -18 l-760 0 0 440 c0
505 4 538 75 685 50 104 135 204 228 267 66 45 288 141 299 130 3 -4 207 -340
453 -747z m2117 685 c151 -63 282 -187 353 -335 71 -147 75 -180 75 -685 l0
-440 -761 0 c-418 0 -758 3 -756 8 6 11 856 1420 889 1474 l29 47 52 -20 c29
-11 82 -33 119 -49z m-1272 -398 l95 -127 3 -338 3 -338 -78 -129 -78 -129
-45 0 -45 0 -78 129 -78 129 3 338 3 338 95 127 c52 70 97 127 100 127 3 0 48
-57 100 -127z"/>
<path d="M2466 4680 c-63 -16 -153 -70 -197 -117 -22 -24 -55 -74 -72 -111
-29 -61 -32 -76 -32 -163 0 -90 2 -99 37 -171 45 -91 103 -147 196 -191 61
-29 76 -32 162 -32 86 0 101 3 162 32 93 44 151 100 196 191 35 72 37 81 37
172 0 91 -2 100 -37 172 -68 136 -188 217 -336 224 -42 2 -94 -1 -116 -6z
m204 -224 c59 -39 85 -89 85 -166 0 -78 -26 -127 -88 -168 -56 -37 -153 -39
-210 -3 -76 47 -111 140 -88 229 14 51 75 117 123 131 53 16 135 6 178 -23z"/>
<path d="M3411 616 c-87 -48 -50 -186 49 -186 51 0 100 49 100 99 0 75 -83
124 -149 87z"/>
<path d="M3811 616 c-67 -37 -65 -143 4 -174 35 -16 255 -16 290 0 29 13 55
55 55 88 0 33 -26 75 -55 88 -37 17 -263 15 -294 -2z"/>
</g>
</svg>
