<?xml version="1.0" standalone="no"?>
<!DOCTYPE svg PUBLIC "-//W3C//DTD SVG 20010904//EN"
 "http://www.w3.org/TR/2001/REC-SVG-20010904/DTD/svg10.dtd">
<svg version="1.0" xmlns="http://www.w3.org/2000/svg"
 width="512.000000pt" height="512.000000pt" viewBox="0 0 512.000000 512.000000"
 preserveAspectRatio="xMidYMid meet">

<g transform="translate(0.000000,512.000000) scale(0.100000,-0.100000)"
fill="#000000" stroke="none">
<path d="M3060 4723 c-27 -11 -30 -26 -30 -168 0 -149 4 -165 47 -165 45 0 55
36 51 180 -3 117 -5 133 -22 146 -21 15 -23 15 -46 7z"/>
<path d="M2541 4504 c-11 -8 -21 -25 -21 -37 0 -30 187 -217 217 -217 26 0 53
34 46 59 -5 21 -181 196 -204 204 -9 3 -26 -1 -38 -9z"/>
<path d="M3553 4500 c-50 -31 -183 -178 -183 -203 0 -30 18 -47 48 -47 27 0
183 144 207 190 27 53 -19 93 -72 60z"/>
<path d="M2985 4277 c-65 -22 -104 -45 -146 -90 -186 -191 -83 -510 179 -557
152 -28 295 47 360 189 98 214 -50 455 -288 467 -37 2 -82 -2 -105 -9z m211
-123 c104 -64 142 -191 90 -298 -69 -140 -240 -178 -356 -78 -95 81 -114 208
-46 308 70 104 207 133 312 68z"/>
<path d="M2332 3994 c-24 -17 -29 -53 -10 -72 8 -8 57 -12 153 -12 149 0 165
5 165 46 0 43 -34 54 -165 54 -93 0 -126 -4 -143 -16z"/>
<path d="M3532 3994 c-24 -17 -29 -53 -10 -72 8 -8 58 -12 160 -12 138 0 148
1 158 20 15 28 3 59 -27 71 -13 5 -77 9 -141 9 -90 0 -123 -4 -140 -16z"/>
<path d="M1410 3970 c-155 -19 -304 -115 -383 -246 -17 -30 -37 -52 -43 -50
-62 24 -195 11 -268 -26 -102 -51 -174 -141 -202 -250 -44 -169 40 -351 198
-431 88 -44 162 -48 808 -45 l595 3 53 24 c104 47 170 159 159 267 -15 142
-124 243 -263 244 l-61 0 -12 73 c-45 273 -307 470 -581 437z m180 -112 c135
-41 242 -146 288 -283 11 -33 17 -95 22 -212 1 -28 40 -36 87 -18 97 37 195
-1 228 -90 22 -57 15 -115 -20 -160 -56 -74 -16 -70 -730 -70 l-640 0 -55 26
c-203 96 -228 365 -45 487 71 47 140 58 230 37 41 -10 81 -15 89 -12 8 3 29
34 47 68 95 189 306 285 499 227z"/>
<path d="M2617 3562 c-96 -96 -111 -124 -85 -150 28 -28 60 -13 145 71 102 99
118 125 97 156 -28 39 -54 26 -157 -77z"/>
<path d="M3382 3648 c-7 -7 -12 -21 -12 -33 0 -27 188 -215 215 -215 32 0 48
16 48 45 0 21 -22 49 -94 121 -95 95 -127 112 -157 82z"/>
<path d="M3042 3508 c-8 -8 -12 -57 -12 -154 0 -133 1 -144 21 -157 27 -19 58
-10 70 20 5 13 9 77 9 141 0 90 -4 123 -16 140 -17 24 -53 29 -72 10z"/>
<path d="M4055 3216 c-115 -28 -217 -134 -234 -245 -5 -29 -11 -37 -31 -39
-52 -6 -71 -13 -104 -43 -94 -82 -80 -219 29 -281 40 -23 42 -23 420 -23 437
0 443 1 515 82 44 50 60 94 60 163 0 52 -35 134 -71 167 -40 36 -110 63 -169
63 -53 1 -56 2 -83 41 -32 47 -103 94 -171 114 -58 18 -93 18 -161 1z m194
-124 c31 -18 57 -46 80 -85 l35 -58 71 6 c57 6 79 4 104 -9 91 -48 94 -184 4
-243 -25 -17 -57 -18 -400 -18 -370 0 -373 0 -394 22 -28 27 -29 75 -3 104 17
19 26 20 77 14 72 -8 87 3 87 59 0 191 184 304 339 208z"/>
<path d="M3122 2354 c-72 -27 -145 -109 -458 -514 -163 -212 -298 -387 -301
-390 -2 -2 -88 80 -191 182 -104 104 -205 196 -228 208 -56 28 -138 40 -198
29 -105 -19 -130 -42 -435 -391 -157 -180 -288 -324 -292 -320 -3 4 -18 50
-34 102 -51 173 -67 196 -114 170 -18 -9 -26 -29 -45 -113 l-6 -27 -33 17
c-20 10 -64 18 -117 21 -74 4 -92 1 -134 -18 -170 -81 -241 -337 -149 -542 24
-54 90 -129 137 -155 19 -10 18 -13 -11 -49 -61 -77 -46 -73 -283 -76 l-215
-3 -10 -29 c-8 -24 -6 -31 14 -47 23 -19 84 -19 2540 -19 2261 0 2519 2 2539
16 26 18 28 46 6 68 -13 14 -48 16 -223 16 l-208 0 -67 100 -66 100 58 58
c142 139 178 355 92 540 -33 70 -114 158 -172 185 -93 44 -199 42 -288 -3 -21
-11 -41 -17 -43 -12 -2 4 -23 66 -47 137 -50 153 -62 175 -95 175 -31 0 -46
-24 -76 -117 -13 -40 -25 -73 -28 -73 -4 1 -103 145 -221 321 -118 177 -232
341 -254 365 -58 67 -123 97 -221 101 -55 2 -94 -2 -123 -13z m207 -104 c51
-25 67 -45 231 -290 139 -207 152 -236 134 -284 -10 -27 -37 -18 -98 34 -73
64 -118 83 -174 77 -55 -6 -89 -37 -132 -123 -61 -122 -133 -126 -205 -12 -91
142 -191 155 -325 43 -55 -46 -71 -54 -93 -46 -15 6 16 51 191 276 218 281
238 304 287 329 43 23 137 21 184 -4z m-1429 -500 c19 -10 93 -77 164 -148
l129 -130 -39 -20 c-38 -20 -40 -20 -76 -1 -114 58 -225 41 -375 -58 -42 -29
-65 -36 -118 -40 -72 -6 -139 12 -170 47 -21 23 -33 5 132 196 118 136 151
162 218 178 32 7 97 -5 135 -24z m1630 -114 c96 -90 164 -100 236 -34 l22 20
144 -214 c80 -117 251 -370 382 -563 l236 -350 -700 -3 c-385 -1 -1015 -1
-1400 0 l-701 3 407 525 c223 289 410 529 415 534 5 5 30 4 62 -2 73 -15 108
-3 191 64 92 74 112 73 165 -5 79 -115 136 -150 227 -136 77 11 108 42 187
185 15 29 21 32 49 26 17 -3 52 -26 78 -50z m550 -172 c39 -116 30 -140 -23
-60 -21 31 -37 61 -37 67 0 13 22 89 26 89 1 0 17 -43 34 -96z m407 -90 c94
-55 146 -158 146 -294 1 -110 -26 -181 -93 -250 -27 -28 -52 -50 -57 -50 -9 0
-73 95 -73 109 0 5 32 48 71 97 92 115 94 120 74 150 -27 42 -62 30 -115 -41
l-35 -47 -7 34 c-4 18 -10 67 -13 108 -10 109 -39 143 -90 106 -18 -13 -19
-20 -8 -127 6 -63 10 -115 9 -116 -1 -1 -33 43 -70 98 -78 115 -78 117 -2 191
71 70 176 83 263 32z m-2205 9 c15 -17 -9 -51 -324 -455 l-339 -438 -515 0
c-283 0 -514 2 -514 5 0 4 671 777 715 824 l23 24 39 -31 c51 -40 120 -62 196
-62 76 1 143 23 225 77 67 44 146 67 190 56 15 -3 44 -15 65 -26 51 -26 123
-20 174 16 46 31 46 31 65 10z m-1516 -180 l32 -23 -29 -132 c-16 -73 -34
-160 -41 -193 -12 -60 -12 -60 -20 -27 -9 34 -65 128 -102 170 -33 37 -86 24
-86 -22 0 -10 20 -52 45 -92 41 -65 45 -78 45 -133 0 -33 -3 -61 -7 -61 -5 0
-22 9 -40 20 -157 95 -156 403 2 502 43 27 157 22 201 -9z m173 -135 c1 -9
-19 -38 -43 -65 l-45 -48 20 90 c32 153 29 147 49 90 10 -27 19 -57 19 -67z"/>
</g>
</svg>
